# File created by Blade
# Date/Time:  Thu Jan 22 16:10:22 2015
#---------------------------------------------------------
:version 1.10
:name HOM
:units
  mass 1.0
  length 1.000000
  angle deg
:documentation
     Acclaim Skeleton File
:root
   axis xyz
   order TX TY TZ RX RY RZ
   position 0.000000 0.000000 0.000000
   orientation 0 0 0
:bonedata
   begin
      id 1
      name RightUpLeg_dum
      direction -1.000000 0.000000 0.000000
      length 3.766986
      axis 0.0 0.0 0.0 xyz
   end
   begin
      id 2
      name LeftUpLeg_dum
      direction 1.000000 0.000000 0.000000
      length 3.766986
      axis 0.0 0.0 0.0 xyz
   end
   begin
      id 3
      name Spine_dum
      direction 0.000000 1.000000 0.000000
      length 7.779697
      axis 0.0 0.0 0.0 xyz
   end
   begin
      id 4
      name RightUpLeg
      direction 0.000000 -1.000000 0.000000
      length 18.017682
      axis 0.0 0.0 0.0 xyz
      dof rx ry rz
   end
   begin
      id 5
      name RightLeg
      direction 0.000000 -1.000000 0.000000
      length 16.881075
      axis 0.0 0.0 0.0 xyz
      dof rx ry rz
   end
   begin
      id 6
      name RightFoot
      direction 0.000000 -0.258819 0.965926
      length 5.770812
      axis 15.0 0.0 0.0 xyz
      dof rx ry rz
   end
   begin
      id 7
      name RightToeBase
      direction 0.000000 0.000000 1.000000
      length 2.952750
      axis 0.0 0.0 0.0 xyz
      dof rx ry rz
   end
   begin
      id 8
      name LeftUpLeg
      direction 0.000000 -1.000000 0.000000
      length 18.017682
      axis 0.0 0.0 0.0 xyz
      dof rx ry rz
   end
   begin
      id 9
      name LeftLeg
      direction 0.000000 -1.000000 0.000000
      length 16.881075
      axis 0.0 0.0 0.0 xyz
      dof rx ry rz
   end
   begin
      id 10
      name LeftFoot
      direction 0.000000 -0.258819 0.965926
      length 5.770812
      axis 15.0 0.0 0.0 xyz
      dof rx ry rz
   end
   begin
      id 11
      name LeftToeBase
      direction 0.000000 0.000000 1.000000
      length 2.952750
      axis 0.0 0.0 0.0 xyz
      dof rx ry rz
   end
   begin
      id 12
      name Spine
      direction 0.000000 1.000000 0.000000
      length 0.000000
      axis 0.0 0.0 0.0 xyz
      dof rx ry rz
   end
   begin
      id 13
      name Spine_dum1
      direction 0.000000 1.000000 0.000000
      length 10.941760
      axis 0.0 0.0 0.0 xyz
   end
   begin
      id 14
      name Spine_dum2
      direction 0.000000 1.000000 0.000000
      length 10.941760
      axis 0.0 0.0 0.0 xyz
   end
   begin
      id 15
      name Spine_dum3
      direction 0.000000 1.000000 0.000000
      length 16.646042
      axis 0.0 0.0 0.0 xyz
   end
   begin
      id 16
      name RightShoulder
      direction -1.000000 0.000000 0.000000
      length 7.708937
      axis 0.0 0.0 90.0 xyz
      dof rx ry rz
   end
   begin
      id 17
      name RightArm
      direction -1.000000 0.000000 0.000000
      length 11.521345
      axis 0.0 0.0 90.0 xyz
      dof rx ry rz
   end
   begin
      id 18
      name RightForeArm
      direction -1.000000 0.000000 0.000000
      length 10.175898
      axis 0.0 0.0 90.0 xyz
      dof ry rz rx
   end
   begin
      id 19
      name RightHand
      direction -1.000000 0.000000 0.000000
      length 0.000000
      axis 0.0 0.0 90.0 xyz
      dof rx ry rz
   end
   begin
      id 20
      name RightHand_dum1
      direction -1.000000 0.000000 0.000000
      length 3.937000
      axis 0.0 0.0 90.0 xyz
   end
   begin
      id 21
      name RightHand_dum2
      direction 0.000000 0.000000 0.000000
      length 0.000000
      axis 0.0 0.0 90.0 xyz
   end
   begin
      id 22
      name RightHandThumb1
      direction 0.000000 0.000000 1.000000
      length 3.937000
      axis 0.0 0.0 90.0 xyz
      dof rx rz ry
   end
   begin
      id 23
      name LeftShoulder
      direction 1.000000 0.000000 0.000000
      length 7.708937
      axis 0.0 0.0 -90.0 xyz
      dof rx ry rz
   end
   begin
      id 24
      name LeftArm
      direction 1.000000 0.000000 0.000000
      length 11.521345
      axis 0.0 0.0 -90.0 xyz
      dof rx ry rz
   end
   begin
      id 25
      name LeftForeArm
      direction 1.000000 0.000000 0.000000
      length 10.175898
      axis 0.0 0.0 -90.0 xyz
      dof ry rz rx
   end
   begin
      id 26
      name LeftHand
      direction 1.000000 0.000000 0.000000
      length 0.000000
      axis 0.0 0.0 -90.0 xyz
      dof rx ry rz
   end
   begin
      id 27
      name LeftHand_dum1
      direction 1.000000 0.000000 0.000000
      length 3.937000
      axis 0.0 0.0 -90.0 xyz
   end
   begin
      id 28
      name LeftHand_dum2
      direction 0.000000 0.000000 0.000000
      length 0.000000
      axis 0.0 0.0 -90.0 xyz
   end
   begin
      id 29
      name LeftHandThumb1
      direction 0.000000 0.000000 1.000000
      length 3.937000
      axis 0.0 0.0 -90.0 xyz
      dof rx rz ry
   end
   begin
      id 30
      name Head
      direction 0.000000 1.000000 0.000000
      length 4.527550
      axis 0.0 0.0 0.0 xyz
      dof rx ry rz
   end
:hierarchy
   begin
      root RightUpLeg_dum LeftUpLeg_dum Spine_dum
      RightUpLeg_dum RightUpLeg
      LeftUpLeg_dum LeftUpLeg
      Spine_dum Spine
      RightUpLeg RightLeg
      RightLeg RightFoot
      RightFoot RightToeBase
      LeftUpLeg LeftLeg
      LeftLeg LeftFoot
      LeftFoot LeftToeBase
      Spine Spine_dum1 Spine_dum2 Spine_dum3
      Spine_dum1 RightShoulder
      Spine_dum2 LeftShoulder
      Spine_dum3 Head
      RightShoulder RightArm
      RightArm RightForeArm
      RightForeArm RightHand
      RightHand RightHand_dum1 RightHand_dum2
      RightHand_dum2 RightHandThumb1
      LeftShoulder LeftArm
      LeftArm LeftForeArm
      LeftForeArm LeftHand
      LeftHand LeftHand_dum1 LeftHand_dum2
      LeftHand_dum2 LeftHandThumb1
   end

# File created by Blade
# Date/Time:  Thu Jan 22 16:10:14 2015
# Frame Rate: 120.000 fps
#------------------------------------------------------
:FULLY-SPECIFIED
:DEGREES
1
root 1.656644 37.251134 3.218337 -2.779180 -4.570205 1.940218
RightUpLeg 10.206026 -0.125811 -4.216112
RightLeg -5.126282 -0.000000 0.000000
RightFoot -10.420621 -12.303915 17.407240
RightToeBase 14.322885 -0.000000 -0.000000
LeftUpLeg 8.919362 3.451885 1.164023
LeftLeg -2.348921 -0.000000 0.000000
LeftFoot -8.130937 11.232272 -18.324891
LeftToeBase 9.051084 -0.000000 -0.000000
Spine 7.240627 -2.864943 -2.643782
RightShoulder -7.207548 -9.580122 -29.889182
RightArm 4.903435 30.402213 28.019622
RightForeArm 5.968533 -0.000000 18.379380
RightHand 1.309740 -0.000000 4.593737
RightHandThumb1 -24.326973 -0.000000 -32.862282
LeftShoulder -26.956613 32.210730 16.191010
LeftArm 37.972038 -52.733889 -51.221088
LeftForeArm 34.288548 -0.000000 4.431632
LeftHand -19.168089 0.000000 -7.359291
LeftHandThumb1 -26.253704 0.000000 33.147579
Head 5.949738 12.258404 4.181219
2
root 1.655570 37.250749 3.219340 -2.745912 -4.605490 1.935537
RightUpLeg 10.176223 -0.112126 -4.211177
RightLeg -5.138388 -0.000000 0.000000
RightFoot -10.411530 -12.282181 17.406593
RightToeBase 14.332046 -0.000000 -0.000000
LeftUpLeg 8.908313 3.449594 1.163752
LeftLeg -2.381048 -0.000000 0.000000
LeftFoot -8.126964 11.263114 -18.389281
LeftToeBase 8.973944 -0.000000 -0.000000
Spine 7.208528 -2.850935 -2.652277
RightShoulder -7.194443 -9.574285 -29.886917
RightArm 4.913868 30.394997 28.011134
RightForeArm 5.982060 -0.000000 18.369778
RightHand 1.321466 -0.000000 4.584017
RightHandThumb1 -24.326973 -0.000000 -32.862282
LeftShoulder -26.971679 32.214366 16.184468
LeftArm 37.912404 -52.730293 -51.164165
LeftForeArm 34.299020 -0.000000 4.433604
LeftHand -19.142809 -0.000000 -7.389623
LeftHandThumb1 -26.253704 0.000000 33.147579
Head 6.018254 12.235924 4.199652
3
root 1.655120 37.250553 3.221504 -2.722024 -4.636327 1.936149
RightUpLeg 10.163222 -0.119279 -4.214328
RightLeg -5.168729 -0.000000 0.000000
RightFoot -10.385349 -12.257414 17.413389
RightToeBase 14.346211 -0.000000 -0.000000
LeftUpLeg 8.902466 3.481150 1.163692
LeftLeg -2.403541 -0.000000 0.000000
LeftFoot -8.131454 11.278212 -18.349294
LeftToeBase 9.061899 -0.000000 -0.000000
Spine 7.188102 -2.821858 -2.666378
RightShoulder -7.209003 -9.596853 -29.871441
RightArm 4.946813 30.399643 28.008108
RightForeArm 5.988086 0.000000 18.370460
RightHand 1.309457 0.000000 4.565818
RightHandThumb1 -24.326973 -0.000000 -32.862282
LeftShoulder -26.984524 32.241029 16.170802
LeftArm 37.960736 -52.769743 -51.198343
LeftForeArm 34.322157 -0.000000 4.407917
LeftHand -19.113920 -0.000000 -7.375700
LeftHandThumb1 -26.253704 0.000000 33.147579
Head 6.078501 12.200849 4.224356
4
root 1.654402 37.250234 3.223217 -2.694099 -4.667453 1.934166
RightUpLeg 10.142390 -0.096706 -4.210261
RightLeg -5.191775 -0.000000 0.000000
RightFoot -10.371830 -12.262098 17.408006
RightToeBase 14.376550 -0.000000 -0.000000
LeftUpLeg 8.896965 3.484439 1.162112
LeftLeg -2.434351 -0.000000 0.000000
LeftFoot -8.124655 11.313346 -18.337689
LeftToeBase 9.029026 -0.000000 -0.000000
Spine 7.157019 -2.810889 -2.679227
RightShoulder -7.199297 -9.623720 -29.860475
RightArm 4.974616 30.417111 28.006542
RightForeArm 6.004043 -0.000000 18.387024
RightHand 1.458204 -0.000000 4.469253
RightHandThumb1 -24.326973 -0.000000 -32.862282
LeftShoulder -26.997673 32.253049 16.168014
LeftArm 37.939380 -52.781101 -51.184034
LeftForeArm 34.359223 -0.000000 4.403956
LeftHand -19.095463 -0.000000 -7.372646
LeftHandThumb1 -26.253704 0.000000 33.147579
Head 6.169448 12.182223 4.250055
5
root 1.653449 37.250184 3.224383 -2.655484 -4.699443 1.931072
RightUpLeg 10.104964 -0.091781 -4.205505
RightLeg -5.205969 -0.000000 0.000000
RightFoot -10.363476 -12.248757 17.419093
RightToeBase 14.371890 -0.000000 -0.000000
LeftUpLeg 8.877682 3.484266 1.161009
LeftLeg -2.461837 -0.000000 0.000000
LeftFoot -8.105583 11.352655 -18.301739
LeftToeBase 8.984591 -0.000000 -0.000000
Spine 7.107785 -2.794268 -2.685022
RightShoulder -7.190426 -9.637860 -29.865088
RightArm 4.994789 30.419845 28.015616
RightForeArm 5.982715 -0.000000 18.400174
RightHand 1.529115 -0.000000 4.436348
RightHandThumb1 -24.326973 -0.000000 -32.862282
LeftShoulder -26.981139 32.250112 16.177931
LeftArm 37.855943 -52.763612 -51.107332
LeftForeArm 34.352376 -0.000000 4.399536
LeftHand -19.119207 0.000000 -7.340591
LeftHandThumb1 -26.253704 0.000000 33.147579
Head 6.267707 12.179465 4.273250
